<?xml version="1.0" standalone="no"?>
<!DOCTYPE svg PUBLIC "-//W3C//DTD SVG 20010904//EN"
 "http://www.w3.org/TR/2001/REC-SVG-20010904/DTD/svg10.dtd">
<svg version="1.0" xmlns="http://www.w3.org/2000/svg"
 width="512.000000pt" height="512.000000pt" viewBox="0 0 512.000000 512.000000"
 preserveAspectRatio="xMidYMid meet">
<metadata>
Created by potrace 1.14, written by Peter Selinger 2001-2017
</metadata>
<g transform="translate(0.000000,512.000000) scale(0.100000,-0.100000)"
fill="#000000" stroke="none">
<path d="M2329 5105 c-2 -2 -38 -6 -79 -9 -86 -6 -257 -28 -316 -40 -12 -2
-39 -7 -60 -10 -92 -15 -260 -60 -277 -74 -9 -8 -21 -29 -25 -45 -7 -28 -17
-34 -95 -61 -85 -29 -87 -29 -107 -11 -33 30 -77 23 -195 -34 -390 -186 -704
-466 -920 -821 -107 -175 -201 -397 -208 -492 -8 -94 28 -193 96 -265 l31 -33
-51 -51 c-48 -48 -97 -131 -111 -188 -4 -14 -7 -80 -6 -146 0 -114 2 -124 33
-190 49 -106 139 -186 246 -220 l40 -12 1 -222 c1 -196 -1 -223 -15 -228 -61
-19 -150 -72 -191 -114 -41 -42 -91 -121 -92 -146 0 -4 -5 -14 -11 -22 -15
-18 -19 -211 -6 -271 31 -142 135 -255 278 -305 l36 -12 2 -69 c7 -325 168
-611 438 -780 144 -91 328 -166 459 -190 16 -3 32 -6 35 -8 3 -2 31 -7 61 -11
30 -3 69 -9 85 -12 44 -7 2250 -6 2315 1 163 19 270 46 410 104 160 65 284
145 391 251 172 172 263 381 273 631 4 93 3 90 19 90 29 0 140 62 180 102 88
87 126 186 125 334 0 139 -38 235 -127 323 -44 42 -149 101 -182 101 -15 0
-17 22 -15 227 1 219 2 228 21 231 50 10 131 57 180 106 87 86 120 171 124
311 4 142 -34 246 -122 334 l-51 51 31 33 c99 103 121 241 63 397 -120 328
-339 640 -606 866 -368 314 -876 517 -1444 579 -30 3 -77 8 -105 11 -56 7
-551 15 -556 9z"/>
</g>
</svg>
